<?xml version="1.0" encoding="UTF-8"?>
<svg version="1.1" xmlns="http://www.w3.org/2000/svg" width="240" height="240">
<path d="M0 0 C79.2 0 158.4 0 240 0 C240 79.2 240 158.4 240 240 C160.8 240 81.6 240 0 240 C0 160.8 0 81.6 0 0 Z " fill="#ffffff" transform="translate(0,0)"/>
<path d="M0 0 C3.856875 -0.061875 7.71375 -0.12375 11.6875 -0.1875 C13.4986731 -0.22846802 13.4986731 -0.22846802 15.34643555 -0.27026367 C16.308479 -0.27775635 17.27052246 -0.28524902 18.26171875 -0.29296875 C19.24100342 -0.3086792 20.22028809 -0.32438965 21.22924805 -0.34057617 C24.50164784 0.06166171 26.3497269 1.07086193 29 3 C30.3125 5.1875 30.3125 5.1875 31 7 C31.66 7 32.32 7 33 7 C34.02319033 10.06957098 34.13371939 12.22440323 34.125 15.4375 C34.12886719 16.85869141 34.12886719 16.85869141 34.1328125 18.30859375 C34.01473475 20.70140459 33.68112635 22.71336153 33 25 C32.34 25 31.68 25 31 25 C30.773125 25.598125 30.54625 26.19625 30.3125 26.8125 C28.56929702 29.7178383 27.06808945 30.5484308 24 32 C21.30408429 32.20952713 18.86549491 32.28744431 16.1875 32.1875 C15.14819336 32.16719727 15.14819336 32.16719727 14.08789062 32.14648438 C12.39158735 32.11138845 10.69568864 32.05758943 9 32 C9 36.62 9 41.24 9 46 C6.03 46 3.06 46 0 46 C0 30.82 0 15.64 0 0 Z " fill="#080708" transform="translate(20,94)"/>
<path d="M0 0 C4.20984062 1.55920023 7.15195407 3.51905497 10 7 C11.31006011 10.70460706 11.20335669 14.48028382 11.25 18.375 C11.27578125 19.66148438 11.3015625 20.94796875 11.328125 22.2734375 C10.90557999 27.07234151 9.60687555 30.49679384 6.0625 33.8125 C1.1754825 36.62623735 -4.50833651 36.6333198 -10 36 C-13.95222679 33.98795727 -16.72762595 31.82715629 -19 28 C-21.07326637 21.59172214 -20.91967533 13.759026 -18.8125 7.4375 C-13.53672986 0.34249877 -8.38861964 -0.72271185 0 0 Z " fill="#070707" transform="translate(78,105)"/>
<path d="M0 0 C9.9 0 19.8 0 30 0 C30 2.64 30 5.28 30 8 C23.07 8 16.14 8 9 8 C9 11.63 9 15.26 9 19 C14.61 19 20.22 19 26 19 C26 21.64 26 24.28 26 27 C20.39 27 14.78 27 9 27 C9 30.96 9 34.92 9 39 C15.93 39 22.86 39 30 39 C30 41.31 30 43.62 30 46 C20.1 46 10.2 46 0 46 C0 30.82 0 15.64 0 0 Z " fill="#050505" transform="translate(155,94)"/>
<path d="M0 0 C0 2.31 0 4.62 0 7 C-5.28 7 -10.56 7 -16 7 C-16 8.32 -16 9.64 -16 11 C-15.10796875 11.15855469 -14.2159375 11.31710938 -13.296875 11.48046875 C-12.12640625 11.71378906 -10.9559375 11.94710937 -9.75 12.1875 C-8.58984375 12.40792969 -7.4296875 12.62835938 -6.234375 12.85546875 C-2.4011117 14.21192545 -1.1149155 15.57291065 1 19 C1.6549009 24.14564995 0.98081512 27.72749833 -2 32 C-9.0835461 35.80092718 -18.34167596 34.13456652 -26 33 C-26 30.36 -26 27.72 -26 25 C-20.39 25 -14.78 25 -9 25 C-9 24.01 -9 23.02 -9 22 C-9.80824219 21.82984375 -10.61648437 21.6596875 -11.44921875 21.484375 C-23.35015773 18.78548896 -23.35015773 18.78548896 -26 15 C-26.7495993 11.1811752 -26.81863573 7.81089046 -26 4 C-19.68113956 -4.8156746 -9.03080145 -2.39113419 0 0 Z " fill="#060606" transform="translate(121,107)"/>
<path d="M0 0 C2.97 0 5.94 0 9 0 C9.9765625 1.7578125 10.953125 3.515625 11.9296875 5.2734375 C13.00897274 7.1612614 13.00897274 7.1612614 15 9 C16.65 6.03 18.3 3.06 20 0 C22.97 0 25.94 0 29 0 C27.61082711 3.76574807 25.82978868 7.01167985 23.75 10.4375 C21.40519977 14.56339914 21.40519977 14.56339914 21.3125 19.1875 C23.11221878 22.1870313 24.91821663 25.1729136 26.87890625 28.0703125 C28 30 28 30 29 34 C25.7 34 22.4 34 19 34 C18.0234375 31.94921875 17.046875 29.8984375 16.0703125 27.84765625 C15.1315023 25.83667541 15.1315023 25.83667541 13 25 C12.71125 25.928125 12.4225 26.85625 12.125 27.8125 C11 31 11 31 9 34 C6.8359375 34.29296875 6.8359375 34.29296875 4.375 34.1875 C3.55773437 34.16042969 2.74046875 34.13335937 1.8984375 34.10546875 C1.27195313 34.07066406 0.64546875 34.03585938 0 34 C1.34755388 29.22230897 3.44168272 25.40624224 6.07421875 21.24609375 C7.28064223 18.31911694 6.97232344 16.99421096 6 14 C5.03672206 12.09479101 4.01225771 10.21961962 2.9375 8.375 C0 3.32941176 0 3.32941176 0 0 Z " fill="#070707" transform="translate(190,106)"/>
<path d="M0 0 C3.3 0 6.6 0 10 0 C10 3.3 10 6.6 10 10 C12.64 10 15.28 10 18 10 C18 12.64 18 15.28 18 18 C15.03 18 12.06 18 9 18 C9.33 23.94 9.66 29.88 10 36 C12.64 36.33 15.28 36.66 18 37 C18 39.64 18 42.28 18 45 C16.12632538 45.10914609 14.25076302 45.1861054 12.375 45.25 C11.33085937 45.29640625 10.28671875 45.3428125 9.2109375 45.390625 C4.88627324 44.86451013 3.05513388 44.1642458 0 41 C-0.74495562 37.06248797 -0.56357061 33.23899359 -0.375 29.25 C-0.34792969 28.17105469 -0.32085937 27.09210938 -0.29296875 25.98046875 C-0.22229142 23.31828935 -0.12368401 20.66015764 0 18 C-1.32 18 -2.64 18 -4 18 C-4 15.36 -4 12.72 -4 10 C-2.68 10 -1.36 10 0 10 C0 6.7 0 3.4 0 0 Z " fill="#111111" transform="translate(130,96)"/>
<path d="M0 0 C3.5 0.4375 3.5 0.4375 5.19140625 1.53125 C7.17774421 4.42478111 6.93386168 6.90768012 6.9375 10.375 C6.95683594 11.60089844 6.97617188 12.82679687 6.99609375 14.08984375 C6.42230962 17.96175714 5.59501369 19.12617785 2.5 21.4375 C0 21.9375 0 21.9375 -2.5 21.4375 C-5.43750113 19.1952973 -6.40368346 18.03815116 -6.99609375 14.34375 C-6.97675781 13.2196875 -6.95742187 12.095625 -6.9375 10.9375 C-6.93621094 9.8134375 -6.93492188 8.689375 -6.93359375 7.53125 C-6.23658209 2.5579776 -5.05844379 0.63230547 0 0 Z " fill="#ffffff" transform="translate(73.5,112.5625)"/>
<path d="M0 0 C10.28893709 -0.36746204 10.28893709 -0.36746204 13.328125 1.203125 C15.4957214 3.53278468 15.53787444 4.78918686 15.5 7.9375 C15.34109506 11.04749671 15.09167291 12.81665417 13.6875 15.625 C9.23272778 17.90418579 4.94597267 17.23552251 0 17 C0 11.39 0 5.78 0 0 Z " fill="#ffffff" transform="translate(29,102)"/>
<path d="M0 0 C2.61580479 0.3269756 4.64078137 0.82039068 7 2 C7.125 4.375 7.125 4.375 7 7 C5 9 5 9 1.9375 9.1875 C-1 9 -1 9 -2 8 C-2.1875 5.0625 -2.1875 5.0625 -2 2 C-1.34 1.34 -0.68 0.68 0 0 Z " fill="#97D156" transform="translate(224,132)"/>
</svg>
